<svg width="47" height="28" viewBox="0 0 47 28" fill="none" xmlns="http://www.w3.org/2000/svg">
<path d="M11.75 28C8.50985 28 5.74148 27.0813 3.44489 25.2437C1.1483 23.4062 0 21.1604 0 18.5063C0 16.2313 0.836742 14.2042 2.51023 12.425C4.18371 10.6458 6.37349 9.50833 9.07955 9.0125C9.9697 6.32917 11.75 4.15625 14.4205 2.49375C17.0909 0.83125 20.1174 0 23.5 0C27.6659 0 31.1998 1.18854 34.1017 3.56562C37.0036 5.94271 38.4545 8.8375 38.4545 12.25C40.9114 12.4833 42.9498 13.351 44.5699 14.8531C46.19 16.3552 47 18.1125 47 20.125C47 22.3125 46.0653 24.1719 44.196 25.7031C42.3267 27.2344 40.0568 28 37.3864 28H11.75ZM11.75 24.5H37.3864C38.8818 24.5 40.1458 24.0771 41.1784 23.2313C42.211 22.3854 42.7273 21.35 42.7273 20.125C42.7273 18.9 42.211 17.8646 41.1784 17.0188C40.1458 16.1729 38.8818 15.75 37.3864 15.75H34.1818V12.25C34.1818 9.82917 33.1403 7.76562 31.0574 6.05938C28.9744 4.35313 26.4553 3.5 23.5 3.5C20.5447 3.5 18.0256 4.35313 15.9426 6.05938C13.8597 7.76562 12.8182 9.82917 12.8182 12.25H11.75C9.68485 12.25 7.92235 12.8479 6.4625 14.0437C5.00265 15.2396 4.27273 16.6833 4.27273 18.375C4.27273 20.0667 5.00265 21.5104 6.4625 22.7063C7.92235 23.9021 9.68485 24.5 11.75 24.5Z" fill="#EA3323"/>
</svg>
